<?xml version="1.0" standalone="no"?>
<!DOCTYPE svg PUBLIC "-//W3C//DTD SVG 20010904//EN"
 "http://www.w3.org/TR/2001/REC-SVG-20010904/DTD/svg10.dtd">
<svg version="1.0" xmlns="http://www.w3.org/2000/svg"
 width="626.000000pt" height="626.000000pt" viewBox="0 0 626.000000 626.000000"
 preserveAspectRatio="xMidYMid meet">
<metadata>
Created by potrace 1.14, written by Peter Selinger 2001-2017
</metadata>
<g transform="translate(0.000000,626.000000) scale(0.100000,-0.100000)"
fill="#000000" stroke="none">
<path d="M2867 5784 c-4 -4 -31 -9 -60 -10 -28 -2 -64 -5 -79 -8 -16 -2 -47
-7 -70 -11 -24 -4 -47 -10 -52 -13 -5 -3 -23 -7 -40 -9 -38 -5 -56 -9 -76 -16
-26 -9 -104 -28 -120 -29 -8 0 -19 -4 -25 -8 -5 -4 -41 -18 -80 -30 -89 -29
-294 -117 -397 -170 -23 -12 -37 8 -33 47 1 20 -4 40 -14 51 -14 15 -21 17
-52 8 -39 -12 -99 -55 -99 -72 0 -16 -44 -51 -58 -46 -7 2 -12 18 -12 36 0 43
-15 57 -49 45 -14 -6 -28 -10 -31 -8 -6 2 -34 -44 -61 -101 -24 -49 -43 -72
-53 -63 -10 11 -36 12 -36 3 0 -5 -8 -7 -19 -5 -21 4 -46 -36 -50 -80 0 -8 -9
-15 -18 -15 -10 0 -31 -7 -47 -15 -38 -20 -38 -20 -66 25 -22 36 -41 49 -77
56 -23 4 -48 -30 -48 -64 1 -37 -28 -64 -39 -36 -10 26 -7 104 5 104 5 0 7 6
3 12 -5 7 -9 28 -10 46 -1 39 -38 82 -69 82 -22 0 -67 -31 -66 -47 1 -25 -14
-55 -31 -64 -16 -9 -20 -7 -25 10 -3 12 -9 21 -13 21 -4 0 -12 18 -19 40 -6
22 -16 40 -21 40 -5 0 -12 10 -15 21 -4 12 -19 39 -34 60 -31 46 -71 58 -107
34 -48 -31 -52 -83 -14 -182 6 -18 16 -33 22 -33 5 0 7 -4 3 -9 -3 -5 0 -13 5
-16 18 -11 -20 -33 -52 -30 -34 3 -50 -15 -46 -52 3 -28 38 -83 53 -83 3 0 13
-6 20 -12 34 -30 45 -38 55 -38 7 0 5 -7 -4 -15 -8 -9 -19 -15 -23 -15 -4 1
-13 -11 -19 -27 -10 -22 -9 -34 2 -54 12 -24 30 -38 45 -35 3 0 13 -5 22 -13
10 -7 17 -10 17 -5 0 5 4 4 8 -1 4 -6 25 -15 47 -20 34 -9 40 -14 40 -37 2
-71 52 -103 147 -92 56 6 58 6 58 -17 0 -34 -10 -43 -57 -57 -24 -7 -43 -17
-43 -22 0 -6 -5 -9 -12 -8 -17 4 -58 -61 -54 -86 3 -11 5 -24 5 -28 1 -5 7 -8
15 -8 21 0 31 -21 15 -30 -7 -5 -17 -6 -21 -4 -4 3 -8 1 -8 -5 0 -6 -10 -10
-22 -9 -74 3 -118 -27 -118 -81 0 -32 18 -45 74 -57 10 -2 24 -11 31 -21 17
-23 2 -37 -85 -82 -124 -62 -167 -124 -121 -170 12 -12 29 -21 40 -21 35 0 42
-23 21 -68 -11 -23 -20 -47 -20 -55 0 -7 -3 -17 -7 -21 -4 -3 -8 -12 -10 -19
-16 -69 -28 -107 -33 -107 -4 0 -6 -13 -5 -30 1 -16 -1 -30 -4 -30 -6 0 -25
-77 -38 -150 -1 -8 -5 -26 -7 -40 -3 -14 -8 -50 -11 -80 -4 -30 -9 -62 -12
-70 -13 -36 -25 -526 -14 -545 3 -5 7 -28 7 -50 2 -51 15 -144 23 -170 4 -11
6 -30 5 -42 0 -13 2 -23 6 -23 4 0 6 -12 5 -27 -1 -16 1 -30 5 -33 6 -5 28
-97 33 -135 1 -11 4 -22 7 -25 4 -4 22 -59 33 -105 1 -5 6 -16 10 -22 5 -7 6
-13 3 -13 -3 0 6 -25 19 -55 14 -30 23 -55 20 -55 -2 0 7 -22 20 -49 14 -27
25 -52 25 -56 0 -15 155 -314 169 -325 4 -3 22 -31 41 -62 19 -32 38 -58 42
-58 4 0 8 -6 8 -13 0 -8 11 -24 25 -37 14 -13 23 -25 20 -28 -2 -2 1 -10 8
-17 7 -7 41 -47 77 -90 36 -43 84 -98 108 -122 23 -25 42 -49 42 -55 0 -5 4
-7 9 -3 5 3 12 -4 16 -15 3 -11 11 -20 17 -20 6 0 30 -19 53 -43 24 -23 53
-49 65 -57 13 -8 32 -24 44 -36 35 -34 155 -124 166 -124 5 0 10 -4 10 -8 0
-5 12 -15 28 -23 15 -8 29 -16 32 -20 12 -12 177 -109 187 -109 6 0 13 -4 15
-8 3 -7 134 -76 148 -78 3 0 21 -8 40 -16 103 -47 205 -85 268 -100 23 -5 42
-13 42 -17 0 -4 10 -8 23 -8 12 -1 56 -11 97 -23 41 -11 89 -23 105 -26 17 -3
54 -10 83 -15 30 -6 75 -11 100 -11 26 -1 52 -4 57 -8 12 -9 564 -6 585 2 8 4
22 7 30 7 8 0 49 7 90 15 41 9 89 18 105 21 17 3 57 13 90 21 33 9 69 17 80
20 48 10 65 15 145 44 47 17 92 34 100 37 8 4 17 7 20 8 12 4 89 38 137 61 29
13 54 23 55 22 2 -2 17 7 34 19 17 13 42 27 55 33 30 13 96 52 179 106 87 57
96 64 151 107 27 20 51 37 55 37 4 0 21 16 40 35 18 19 35 35 38 35 4 0 27 20
53 45 25 25 50 45 55 45 5 0 6 5 3 10 -3 6 -2 10 3 10 8 0 80 70 134 131 13
14 38 42 56 62 18 21 30 37 27 37 -3 0 5 10 18 23 12 12 44 50 70 84 26 34 60
67 77 75 16 7 30 16 30 20 0 3 9 4 20 1 11 -3 20 -9 20 -13 0 -5 10 -10 23
-12 23 -3 77 45 77 69 0 14 9 16 51 13 28 -1 41 20 42 68 1 12 4 22 8 22 3 0
6 10 5 22 0 12 9 33 20 45 12 13 21 35 20 50 -1 33 36 57 74 47 26 -7 40 -7
75 -1 19 4 46 -13 39 -24 -2 -3 12 -11 32 -17 27 -8 37 -7 49 5 8 8 13 19 9
24 -3 5 -3 18 1 28 9 30 43 18 100 -36 7 -7 15 -9 19 -6 3 4 6 1 6 -5 0 -17
55 -15 70 3 17 21 6 70 -24 102 -16 18 -23 34 -20 52 3 14 5 35 5 46 0 20 -37
54 -58 55 -7 0 -13 5 -13 10 0 6 -6 10 -13 10 -7 0 -14 10 -14 22 -3 33 -31
49 -83 46 -32 -3 -50 2 -64 14 -23 21 -76 24 -94 6 -7 -7 -12 -8 -12 -3 0 6
-4 4 -9 -4 -8 -12 -12 -12 -25 -2 -14 12 -12 16 14 42 23 23 29 38 28 67 0 20
-6 43 -12 51 -8 11 -8 13 2 7 7 -4 12 -1 12 8 0 9 5 16 12 16 6 0 9 3 5 6 -3
4 0 13 8 20 7 8 12 22 10 31 -2 10 -4 22 -4 26 -1 4 -14 13 -30 18 -25 9 -28
14 -24 41 3 17 12 43 21 56 17 27 20 86 23 447 2 175 -6 312 -20 364 -4 14 -6
38 -5 54 2 15 -1 27 -5 27 -4 0 -8 12 -9 28 -4 51 -10 87 -15 102 -3 8 -9 29
-13 45 -11 44 -11 45 -29 110 -9 33 -19 69 -22 80 -3 11 -6 28 -6 38 -1 9 -5
17 -9 17 -4 0 -8 4 -8 9 0 5 -5 22 -12 38 -6 15 -12 30 -13 33 -34 98 -125
300 -137 300 -4 0 -8 7 -8 16 0 9 -9 27 -20 41 -11 14 -17 29 -14 34 3 5 0 9
-5 9 -6 0 -11 7 -11 15 0 8 -4 15 -10 15 -5 0 -10 6 -10 13 0 7 -9 23 -19 34
-11 12 -17 24 -14 27 4 3 0 6 -7 6 -7 0 -11 3 -7 6 3 3 -1 13 -8 22 -41 51
-85 113 -85 121 0 5 -3 11 -8 13 -4 2 -35 37 -69 78 -33 41 -92 107 -131 147
-38 40 -67 75 -64 78 3 3 0 5 -7 5 -7 0 -31 18 -53 40 -21 23 -61 57 -87 78
-25 20 -53 43 -61 50 -69 58 -86 72 -91 72 -3 0 -19 11 -34 24 -16 14 -32 23
-37 20 -4 -3 -8 -1 -8 4 0 5 -28 26 -62 47 -35 21 -66 43 -70 49 -4 6 -8 7 -8
3 0 -5 -13 1 -30 13 -70 50 -430 210 -430 192 0 -4 -4 -2 -8 4 -4 6 -25 16
-47 22 -166 47 -233 65 -250 67 -11 1 -27 5 -35 8 -23 8 -102 20 -225 33 -88
10 -560 16 -568 8z"/>
</g>
</svg>
